/* XPM */
static char *ae0a08bbd59843a6d885383a7691e2c2ZOmEFlmkiyZtikYE[] = {
/* columns rows colors chars-per-pixel */
"32 32 141 2 ",
"   c None",
".  c #04030F",
"X  c #05050F",
"o  c #050511",
"O  c #060510",
"+  c #070610",
"@  c #060611",
"#  c #080711",
"$  c #080812",
"%  c #090812",
"&  c #090813",
"*  c #0B0912",
"=  c #0A0913",
"-  c #0E0A12",
";  c #0E0B12",
":  c #0F0B12",
">  c #0B0A14",
",  c #0C0B15",
"<  c #0D0B15",
"1  c #0F0D15",
"2  c #0D0C16",
"3  c #0F0D17",
"4  c #130F15",
"5  c #171214",
"6  c #201613",
"7  c #211714",
"8  c #211715",
"9  c #261C16",
"0  c #342518",
"q  c #392819",
"w  c #181620",
"e  c #211E29",
"r  c #21202A",
"t  c #392D20",
"y  c #392D28",
"u  c #2B2935",
"i  c #33303B",
"p  c #5D1011",
"a  c #630406",
"s  c #631211",
"d  c #42301B",
"f  c #47311B",
"g  c #43321C",
"h  c #4B341B",
"j  c #49341C",
"k  c #55331D",
"l  c #553A1C",
"z  c #553D1F",
"x  c #5A3B1C",
"c  c #5B3E1D",
"v  c #66201D",
"b  c #792A28",
"n  c #713738",
"m  c #69461F",
"M  c #58555E",
"N  c #6B525C",
"B  c #6F634D",
"V  c #5A5661",
"C  c #625F67",
"Z  c #755A67",
"A  c #7F5F6A",
"S  c #74667B",
"D  c #7B727F",
"F  c #9C0504",
"G  c #8D191B",
"H  c #B00505",
"J  c #BB0A0A",
"K  c #81332E",
"L  c #882D30",
"P  c #C20202",
"I  c #C50000",
"U  c #CA0000",
"Y  c #CE0000",
"T  c #C80504",
"R  c #CC3637",
"E  c #865A25",
"W  c #9F403E",
"Q  c #956928",
"!  c #96682B",
"~  c #96712E",
"^  c #9D7D32",
"/  c #866D76",
"(  c #CB5759",
")  c #D7776A",
"_  c #AE8532",
"`  c #AA813F",
"'  c #B58731",
"]  c #BB9439",
"[  c #CA9535",
"{  c #97866B",
"}  c #AF9674",
"|  c #D5AB40",
" . c #D8BE7C",
".. c #7A6B81",
"X. c #796C80",
"o. c #7A6C81",
"O. c #84788B",
"+. c #897D90",
"@. c #8A7E91",
"#. c #8C8093",
"$. c #8B8492",
"%. c #8D8094",
"&. c #8D8194",
"*. c #958A9B",
"=. c #938D98",
"-. c #9D929A",
";. c #9A959D",
":. c #A28088",
">. c #B1858B",
",. c #A0929D",
"<. c #B7A29A",
"1. c #9F97A3",
"2. c #9F98A0",
"3. c #A49CA8",
"4. c #A59DA9",
"5. c #A59CAA",
"6. c #A69DAB",
"7. c #A79EAC",
"8. c #A89FAD",
"9. c #AFA4AB",
"0. c #B3A9AE",
"q. c #AFA8B3",
"w. c #B0A9B4",
"e. c #B2AAB6",
"r. c #BAB3BD",
"t. c #DF9C9D",
"y. c #C6B8BC",
"u. c #CCBEC3",
"i. c #C3C0C7",
"p. c #C5C3C8",
"a. c #C8C4CB",
"s. c #CEC9CD",
"d. c #CECAD1",
"f. c #D2CFD3",
"g. c #D5D0D3",
"h. c #D7D3D5",
"j. c #D5D3D7",
"k. c #D8D6D9",
"l. c #DCD5D8",
"z. c #DDDCDE",
"x. c #EDE1C4",
/* pixels */
"                                                                ",
"                                                                ",
"                                                                ",
"                                                                ",
"                                                                ",
"                                                                ",
"                                = & & &                         ",
"                              < & & : +                         ",
"                        f 2 2 < ; x h       &                   ",
"                        j 5 < & ; l g O # # &                   ",
"                        & & = # O X # # # # &                   ",
"            7.9.        2 & & O e i & # #                       ",
"            5.5.          r o u $.V # #                         ",
"                          B t { } y X # # # &                   ",
"                          z E ! m 7 O # # #                     ",
"                @.        ~ ] ' q x g O &                       ",
"              %.o.o.    `   | [ 0 9 ^                           ",
"                S ..%.      _ Q 7      .0.                      ",
"                *.#.@.      5 7 &     s.a.z.                    ",
"                w.r.        &   O       j.k.w.                  ",
"                  d.      O     &       5.g.q.O.                ",
"                          w     X &         5.                  ",
"                        u.M -.    2         D                   ",
"                        y.-./ b ;.C 3.                          ",
"                      x.j.9.n v i.=.Z G                         ",
"                      ) t.u./   >.,.:.W                         ",
"                      Y T L N     g.l.<.                        ",
"                      P F s       ( R K k                       ",
"                                  I U a                         ",
"                                  J H p                         ",
"                                                                ",
"                                                                "
};
