/* XPM */
static char *_adfd43d87d644e18e049a3a91019a19Li4zZK8QrA2fHbLh[] = {
/* columns rows colors chars-per-pixel */
"32 32 134 2 ",
"   c #2F363C",
".  c #2C3A3B",
"X  c #353D3E",
"o  c #39423D",
"O  c #2F3640",
"+  c #2F3C45",
"@  c #353E42",
"#  c #393E42",
"$  c #353F4B",
"%  c #364143",
"&  c #3A4344",
"*  c #3D4947",
"=  c #37434C",
"-  c #3B444C",
";  c #3E4B4C",
":  c #3C4651",
">  c #3E4851",
",  c #414545",
"<  c #434C4D",
"1  c #47524E",
"2  c #48534F",
"3  c #434C54",
"4  c #4A4E57",
"5  c #454F59",
"6  c #475253",
"7  c #4B5454",
"8  c #4D5857",
"9  c #47535B",
"0  c #4B545C",
"q  c #4E595A",
"w  c #515656",
"e  c #515A55",
"r  c #535C5C",
"t  c #4D5661",
"y  c #4E5962",
"u  c #525C64",
"i  c #595E64",
"p  c #555E69",
"a  c #556163",
"s  c #596365",
"d  c #56626A",
"f  c #5A656C",
"g  c #5D6A6D",
"h  c #576373",
"j  c #5C6673",
"k  c #5D6974",
"l  c #5D6678",
"z  c #5E6A79",
"x  c #616B6D",
"c  c #606776",
"v  c #616C74",
"b  c #626C7A",
"n  c #696F7B",
"m  c #647174",
"M  c #697475",
"N  c #66707B",
"B  c #6A737D",
"V  c #707676",
"C  c #667280",
"Z  c #6B7783",
"A  c #6D7783",
"S  c #6A7384",
"D  c #6D7687",
"F  c #6E7786",
"G  c #6B7582",
"H  c #6F7981",
"J  c #6E7788",
"K  c #6F7889",
"L  c #747D84",
"P  c #737C85",
"I  c #727B8A",
"U  c #737C8B",
"Y  c #757F89",
"T  c #737C8D",
"R  c #757E8D",
"E  c #757E8F",
"W  c #747D8A",
"Q  c #797F8B",
"!  c #767F90",
"~  c #768187",
"^  c #7A8187",
"/  c #75828B",
"(  c #7A8189",
")  c #78808B",
"_  c #7C838B",
"`  c #7B858F",
"'  c #7B848F",
"]  c #7B8A8F",
"[  c #778091",
"{  c #798293",
"}  c #7C8491",
"|  c #7A8394",
" . c #7B8495",
".. c #7C8596",
"X. c #7D8697",
"o. c #7C8492",
"O. c #7F8891",
"+. c #7C8894",
"@. c #7E8A90",
"#. c #7E8798",
"$. c #7F8899",
"%. c #818C8E",
"&. c #808692",
"*. c #818793",
"=. c #808893",
"-. c #838B95",
";. c #858D98",
":. c #848C99",
">. c #858F99",
",. c #868E99",
"<. c #858D9A",
"1. c #848D9A",
"2. c #888E9C",
"3. c #839096",
"4. c #86929D",
"5. c #8E9399",
"6. c #8F979A",
"7. c #89919C",
"8. c #8B959F",
"9. c #8E959D",
"0. c #8A939C",
"q. c #8E999D",
"w. c #8790A1",
"e. c #8891A0",
"r. c #8992A3",
"t. c #8C94A1",
"y. c #8E97A0",
"u. c #8A93A4",
"i. c #8C95A6",
"p. c #8B94A1",
"a. c #8F98A7",
"s. c #8E97A8",
"d. c #939AA4",
"f. c #949CA7",
/* pixels */
", & X < 4   $ # 0 < $ $ , w , 4 2. .T w.u.s.| T u.w.w.r.i.r.X.K ",
"X 7 x x x i f u k s r 7 r V w # 9. .S T T | K D ! [ [ [ ! [ | #.",
"# i 5.9.d.y.2.W t.<.o.P Q 5.x , 2.I j j h z k k h j c l j k U r.",
"4 i Q n n B c n C n v l n &.r < Q D c j k z z z l j k c j l R a.",
"t f =.c p l h b h h h h B &.c u F n z k b m m z k k k z k c A +.",
"  d 7.Z b C l l C C C h n <.n 0 c j j k z j k h k h k k j h k b ",
"- p ) v h j l l h h l j b ' v 0 z k m d z k m k k k k k k k k j ",
"- 3 h k N k k z C h m v h c 0 y g f z k k h k k k k k g h g k k ",
"% 7 v v g k k k k k h k v g p 9 g k z j v f v g k k k k k k g k ",
"X 7 g x g k k k k k k k v x s r g f g f m k b h k g k h g k k m ",
"o e g x g m k k g k k g k g p q m b B k k k c c k m N m z k h g ",
"2 e x g g k k k k k k d a r 3 - = > 0 3 > 3 4 u ; > : > ; > q d ",
"2 r x x x m h d g d d y y a q 6 q y d t 4 0 4 t 4 0 4 0 9 > t p ",
"o 8 x x g k p y + = > > d ~ -.9.p.-.o.I H W j p 2.t.2.f.8.U Y P ",
"% < s s a f y y z C N N z N Z P P n B n n } p 4 :.Q n B B c Q *.",
"& 1 u q 0 y y u $.s.$.+.Z m k h c i c v n W 0 : w.Q f c c j } 7.",
"@ f -.P P 7.d = K C z k z z k k b j v c k ] u = u./ l z b l ! r.",
"- f -.P A =.j 3 Z m k z z z l z c l v g m M y > $.K l z C l I :.",
"q g P v v ^ k y z k k z k k k z c j x j g 9 a a / S l z b c C I ",
"- 7 M x M M 9 ; g g g k z j k k k v x g a % d Z b z z l k c b n ",
"& 6 g s r a 6 < v v k g k k k k g k k g a o m ] k k z z k z k k ",
"X < 8 * X % ; u g g k k k k k k k k g g a % M ] k h z z k v j g ",
"1 r M M m M v M u f k v k k k k k j g g d ; m ] m h z k k m g k ",
"q x L %.6.q.%.A 0 p v k j l k k k g k m g 9 k / m h m h h k h m ",
"3.~ d v m f B H : 9 z l c l l k z h v j f = g _ z z z z z k z k ",
"4./ d k v k K ] = 5 C l b b z b b h m j d = d A z z z z z j h d ",
"4./ h j k k / $.: t n c b l c b z j b k f = u c k z z l z k d q ",
"+./ j j k k U +.t y b h l j c c l k b k d 6 p v k h h l v z f 9 ",
"Z N k z l k N Z y d N f v c v x c c v x g 7 g b v c c c n v u 1 ",
"l z l k k k k k q u m f x x x g v v f x x e i x x c x x v s 8 * ",
"k j k k k z g f 3 6 s q 8 7 r s q q 7 s r < 6 w i r q q r r 7 < ",
"k k k g k m k g - < w & % # < w # X % 7 7 o X & 7 < % % , 7 e e "
};
