/* XPM */
static char *bd0230a1341f47a2bd1ba8a4e047ce1aq9CS4CGXQ8fStKQt[] = {
/* columns rows colors chars-per-pixel */
"32 32 214 2 ",
"   c None",
".  c #360A09",
"X  c #321516",
"o  c #2E0F0E",
"O  c #1D2B2F",
"+  c #30252E",
"@  c #470B0B",
"#  c #5B0A0A",
"$  c #5F1415",
"%  c #680807",
"&  c #750909",
"*  c #750505",
"=  c #680F10",
"-  c #69281C",
";  c #4C2C34",
":  c #73232E",
">  c #2A3844",
",  c #263B55",
"<  c #15177A",
"1  c #1C196F",
"2  c #163278",
"3  c #2D306B",
"4  c #47365D",
"5  c #653E4A",
"6  c #793D48",
"7  c #4D3C71",
"8  c #35585F",
"9  c #2C526D",
"0  c #3F6A73",
"q  c #44555D",
"w  c #504D5F",
"e  c #7C494A",
"r  c #6D4D57",
"t  c #70565A",
"y  c #444D6C",
"u  c #694667",
"i  c #7A5572",
"p  c #476978",
"a  c #4B737E",
"s  c #506B73",
"d  c #796070",
"f  c #880807",
"g  c #9A0406",
"h  c #AD0607",
"j  c #902228",
"k  c #CD0202",
"l  c #D40000",
"z  c #DD0303",
"x  c #CE1211",
"c  c #E70303",
"v  c #F10C0B",
"b  c #DC343A",
"n  c #E72626",
"m  c #F33633",
"M  c #B55137",
"N  c #F4423D",
"B  c #8A3A45",
"V  c #8E5459",
"C  c #A94F53",
"Z  c #A4675A",
"A  c #825E79",
"S  c #915663",
"D  c #84687A",
"F  c #946975",
"G  c #95686B",
"H  c #B5716E",
"J  c #EB4846",
"K  c #C77858",
"L  c #D27B56",
"P  c #C95760",
"I  c #F57A71",
"U  c #868475",
"Y  c #B58775",
"T  c #BF836D",
"R  c #D6875B",
"E  c #C78666",
"W  c #D48A67",
"Q  c #C39578",
"!  c #D69270",
"~  c #E69C77",
"^  c #E0966D",
"/  c #E8A27E",
"(  c #09158A",
")  c #111B8C",
"_  c #171B86",
"`  c #111E90",
"'  c #051D94",
"]  c #122585",
"[  c #082298",
"{  c #112395",
"}  c #11259A",
"|  c #122A9C",
" . c #0E2D81",
".. c #2E3892",
"X. c #0528A1",
"o. c #112EA2",
"O. c #0B32AB",
"+. c #1232A5",
"@. c #1135AD",
"#. c #1038AB",
"$. c #033BB5",
"%. c #1137B3",
"&. c #113BB3",
"*. c #1C4B93",
"=. c #224A84",
"-. c #386895",
";. c #1145BD",
":. c #1845B3",
">. c #1E58BB",
",. c #0F40BC",
"<. c #3255B2",
"1. c #4C4788",
"2. c #4D4E8F",
"3. c #54728D",
"4. c #577A96",
"5. c #446A93",
"6. c #726E8C",
"7. c #485CA5",
"8. c #566BA8",
"9. c #7C7FA8",
"0. c #074DC5",
"q. c #114BC6",
"w. c #1153CD",
"e. c #1154D1",
"r. c #115CDC",
"t. c #1159D7",
"y. c #2F50C0",
"u. c #1260DF",
"i. c #1D63D2",
"p. c #0861DE",
"a. c #3466C7",
"s. c #236BD6",
"d. c #2674D9",
"f. c #3272CD",
"g. c #0D67E7",
"h. c #1164E5",
"j. c #166CE7",
"k. c #196FE7",
"l. c #1167E8",
"z. c #1A6AEC",
"x. c #1B73E6",
"c. c #1C75E8",
"v. c #0373EF",
"b. c #216DEA",
"n. c #247BE7",
"m. c #287FE7",
"M. c #2279E8",
"N. c #2678E8",
"B. c #3479F6",
"V. c #497ACC",
"C. c #567AC6",
"Z. c #4275DE",
"A. c #447FE4",
"S. c #648593",
"D. c #74939D",
"F. c #6B91A7",
"G. c #779CB4",
"H. c #708BA3",
"J. c #7DA3B8",
"K. c #2A82E8",
"L. c #3888E9",
"P. c #4782D8",
"I. c #5680D6",
"U. c #689DD8",
"Y. c #7693D0",
"T. c #4793EE",
"R. c #559BEB",
"E. c #438AF3",
"W. c #4E92F5",
"Q. c #4090F1",
"!. c #5D9CF1",
"~. c #5398F4",
"^. c #508CE6",
"/. c #639FF5",
"(. c #69A7F8",
"). c #858398",
"_. c #B49598",
"`. c #AB8887",
"'. c #879DA7",
"]. c #879BB7",
"[. c #9091A9",
"{. c #85A8B9",
"}. c #94AAAD",
"|. c #B5AFAA",
" X c #CE8D94",
".X c #EC8F8E",
"XX c #F1AE8C",
"oX c #F4BC9E",
"OX c #F4B494",
"+X c #EDB99E",
"@X c #C8AAAC",
"#X c #F6BDA2",
"$X c #F5C3A9",
"%X c #F5C9B4",
"&X c #8BAEC7",
"*X c #8FAFD5",
"=X c #A3BCC3",
"-X c #A6BCD1",
";X c #90BDF7",
":X c #A7C6D8",
">X c #B7CBD3",
",X c #B2CBD1",
"<X c #B2CBEB",
"1X c #C9DFDF",
"2X c #C5D8E6",
"3X c #CDE7E8",
"4X c #D7E9ED",
"5X c #D7EAF4",
"6X c #F5ECE7",
"7X c #E0EAF1",
"8X c #E6F1F2",
"9X c #ECF4F5",
"0X c #F3F6F7",
"qX c #F9F9F9",
/* pixels */
"                                                                ",
"                  j.k.k.j.k.x.                                  ",
"        { &.;.t.h.h.j.l.q.:.s.M.M.M.k.                          ",
"          { ` | @.&.w.w...A 6.a.L.W.K.m.M.K.  { #.              ",
"                  { &.o.i .XXXF <.W.(.!.L.K.i.#.o.              ",
"                  e.r.;.d ~ _.H.C.W.(.(.(.W.K.i.>.              ",
"          l.l.l.h.z.h.t.a.Y.U.L.W.!.!.!.(.!.L.K.M.              ",
"      h.h.r.h.h.h.h.b.B.E.;X;X!.P.f.V.V.A.W.T.K.N.b.            ",
"    w.q.%.%.%.%.q.r.l.z.B.~.T.f.V.*X7X7X<X^.N.N.N.C.            ",
"  ;.| } | o.` ) { &.w.u.c.m.K.d.U.3XqXqX4XJ.*.>.-.&X            ",
"            o.o.{ ` +.w.h.k.x.d.R.<XqXqX8X'.s G.q :X            ",
"                ;.} } :.w.g.f.I.U.<X6XqX0X>X}.|.S.D.            ",
"            g.l.r.@.) { @.7.`.+X%X$X%X6XqX6X%XY q O O           ",
"        v.g.t.q.@.{ ) ) ) u W OX/ ~ OX#X%X$XXXK -               ",
"        g.q.O.o.) ( ( ) ) _ u Z E R R ~ ~ L M M                 ",
"      p.,.} $.$.X.' { { ) < < 1 4 B 6 V 6 :                     ",
"                    | 2.A F F u ] 1.V G G 5                     ",
"                  <.F ! W W F =.y E OX$XoX! Y 8X3X>X            ",
"                ;.d Q Y |.,X2XY.d L XX#XoX^ Q 4X>X}.3X          ",
"                $.V U {.:X3X9X8X@XH K ! R C D =X'.:X5X          ",
"              0.[ 3 s {.2X0XqX0X8X&X=.7.1.7 y D.'.{.{.          ",
"              ( X.9 p F.,X8X8X4X=X-.2  .] 1 a S.3.a             ",
"                      0 S.}.}.H.p     ] %.  9 8                 ",
"                        , 2 *.=.      @.r.                      ",
"                      3.H.7.y.Z.    8.<.P.&X                    ",
"                    y S.J.-X2X-X4.3.{.-X:X&XJ.                  ",
"                    + ; 6 C H u + w F.).S S P                   ",
"                    $ C  X.X.X_.r ; 6 j h l b @X4X@Xx           ",
"                  X r C n m J J C 5 % f g j ].-X Xn n ^ v       ",
"                  X = g k c J m l = . * : 5.4.6.h l c c c c     ",
"                    . @ # % f f & @ o . X > > ; = = & & f & &   ",
"                                                                "
};
