/* XPM */
static char *fa12275958854e92f5788166e0fd8c05FVn5YB3jgEtsFdi5[] = {
/* columns rows colors chars-per-pixel */
"32 32 29 1 ",
"  c #A75B20",
". c #B56424",
"X c #B46424",
"o c #B16223",
"O c #703410",
"+ c #58230A",
"@ c #59240A",
"# c #B56524",
"$ c #B26223",
"% c #6F3410",
"& c #572309",
"* c #58240A",
"= c #9F551E",
"- c #AA5D21",
"; c #A95C21",
": c #A95D21",
"> c #753812",
", c #632B0D",
"< c #642C0D",
"1 c #6E3310",
"2 c #642B0D",
"3 c #662D0E",
"4 c #98501C",
"5 c #5B260B",
"6 c #9E541E",
"7 c #B66525",
"8 c #5C260B",
"9 c #9D541E",
"0 c white",
/* pixels */
" .XXXXXXXXXXXXXoO+@@@@@@@@@@@@@@",
" .XXXXXXXXXXXXXoO+@@@@@@@@@@@@@@",
" .XXXXXXXXXXXXXoO+@@@@@@@@@@@@@@",
" .XXXXXXXXXXXXXoO+@@@@@@@@@@@@@@",
" .XXXXXXXXXXXXXoO+@@@@@@@@@@@@@@",
" .XXXXXXXXXXXXXoO+@@@@@@@@@@@@@@",
" .XXXXXXXXXXXXXoO+@@@@@@@@@@@@@@",
" .XXXXXXXXXXXXXoO+@@@@@@@@@@@@@@",
" .XXXXXXXXXXXXXoO+@@@@@@@@@@@@@@",
" .XXXXXXXXXXXXXoO+@@@@@@@@@@@@@@",
" .XXXXXXXXXXXXXoO+@@@@@@@@@@@@@@",
" .XXXXXXXXXXXXXoO+@@@@@@@@@@@@@@",
" .XXXXXXXXXXXXXoO+@@@@@@@@@@@@@@",
" .XXXXXXXXXXXXXoO+@@@@@@@@@@@@@@",
" #............#$%&**************",
"=-;;;;;;;;;;;;: >,<<<<<<<<<<<<<<",
"1,<<<<<<<<<<<<234-;;;;;;;;;;;;;;",
"3+************+567..............",
"3*@@@@@@@@@@@@@89#XXXXXXXXXXXXXX",
"3*@@@@@@@@@@@@@89#XXXXXXXXXXXXXX",
"3*@@@@@@@@@@@@@89#XXXXXXXXXXXXXX",
"3*@@@@@@@@@@@@@89#XXXXXXXXXXXXXX",
"3*@@@@@@@@@@@@@89#XXXXXXXXXXXXXX",
"3*@@@@@@@@@@@@@89#XXXXXXXXXXXXXX",
"3*@@@@@@@@@@@@@89#XXXXXXXXXXXXXX",
"3*@@@@@@@@@@@@@89#XXXXXXXXXXXXXX",
"3*@@@@@@@@@@@@@89#XXXXXXXXXXXXXX",
"3*@@@@@@@@@@@@@89#XXXXXXXXXXXXXX",
"3*@@@@@@@@@@@@@89#XXXXXXXXXXXXXX",
"3*@@@@@@@@@@@@@89#XXXXXXXXXXXXXX",
"3*@@@@@@@@@@@@@89#XXXXXXXXXXXXXX",
"3*@@@@@@@@@@@@@89#XXXXXXXXXXXXXX"
};
