/* XPM */
static char *portail_vert_removebg_preview1647873856[] = {
/* columns rows colors chars-per-pixel */
"32 32 67 1 ",
"  c None",
". c #122D17",
"X c #153319",
"o c #1B3E1F",
"O c #1D4421",
"+ c #214C25",
"@ c #265529",
"# c #27582A",
"$ c #295C2C",
"% c #2C612F",
"& c #2F6632",
"* c #2F6832",
"= c #326D35",
"- c #347236",
"; c #357339",
": c #37783B",
"> c #3A7E3E",
", c #3C813E",
"< c #3D8240",
"1 c #418C45",
"2 c #449244",
"3 c #469843",
"4 c #499D44",
"5 c #469549",
"6 c #49974D",
"7 c #47984B",
"8 c #499B4D",
"9 c #4D9B52",
"0 c #509C56",
"q c #539C5A",
"w c #4CA34D",
"e c #4FA94A",
"r c #51AD4D",
"t c #52B048",
"y c #57BA4D",
"u c #58BD4C",
"i c #4EA451",
"p c #51A456",
"a c #51AB54",
"s c #54B253",
"d c #59BD54",
"f c #56B55A",
"g c #57B85B",
"h c #5ABC5D",
"j c #59A460",
"k c #5DAE65",
"l c #5AB660",
"z c #5CBC62",
"x c #61BC67",
"c c #62B66C",
"v c #63BB6A",
"b c #5BC34E",
"n c #5BC254",
"m c #5FCB56",
"M c #5DC35B",
"N c #60CF51",
"B c #61CD59",
"V c #63D554",
"C c #65D954",
"Z c #69DF57",
"A c #64D559",
"S c #66D959",
"D c #68DE59",
"F c #6AE256",
"G c #6BE459",
"H c #61C262",
"J c #69C76A",
/* pixels */
"                                ",
"                                ",
"                                ",
"       vzzzzhhzzv               ",
"          jiasghMMpq            ",
"        9988888wMGdi90          ",
"      q8685511<<1nGSa78q        ",
"      9861<<<<<>,<eFB778q       ",
"     07111<<<>:-=-:yGs679       ",
"    q8arBn1,>=&=&%%-Nd<589      ",
"   08sACu2<>=&&&%$$%e<,<16 zv   ",
"  08aSD3,<>==&&$#$##%&;<16 zz   ",
"  98BSr1,>:=&&$$$+OOOO;<<69fz   ",
"  9dDr<,<,=&&&$$+OoooX&><58fh   ",
"  MGV2,,<,=&&$$$OooXX.X-<7agz   ",
" JGB2,,<,,=&&$$$OOoX.XX*<7fMv   ",
" HSw<<<,<,=**$$#OooX..#><5fz    ",
"vha6<,<,<>=**$$#OOoX.X*<<iMz    ",
"vz96<<<<,,=&*$$$@OooXX-<<azz    ",
"zzi6<<<<,,==&%$$#OoooO-,<sMx    ",
"lg961<,<,>=&&$$$$@OOOO-,rSM     ",
"zzi85<1<,,=&&&$$$#$#%*,uCma     ",
" z q61fnn1;**&&$$$$$%,bCr89     ",
" c  957nGt<=*&&*%$$$-tme69      ",
" c  q516CG3:-****&&&-2789       ",
"    q961wSn2<-*--:><<788        ",
"      988sSVw<><<<258880        ",
"       989anmd7<557669     v    ",
"        p986iMgsi89iqlv         ",
"          q89lzMhffzzzv         ",
"               vzzzzz           ",
"                                "
};
