/* XPM */
static char *portail_rouge_removebg_preview1647873875[] = {
/* columns rows colors chars-per-pixel */
"32 32 62 1 ",
"  c None",
". c #140100",
"X c #1B0201",
"o c #240201",
"O c #2B0302",
"+ c #350503",
"@ c #3C0603",
"# c #3E0804",
"$ c #410704",
"% c #460804",
"& c #4C0905",
"* c #530B06",
"= c #5B0D07",
"- c #5F0F08",
"; c #610D07",
": c #610F08",
"> c #671109",
", c #6B1209",
"< c #73130B",
"1 c #7C160D",
"2 c #7D201A",
"3 c #7F2924",
"4 c #81170E",
"5 c #84180F",
"6 c #901A0F",
"7 c #831B13",
"8 c #8B1A10",
"9 c #831F18",
"0 c #941C11",
"q c #9B1E13",
"w c #A11F14",
"e c #84231C",
"r c #8C241C",
"t c #9D2117",
"y c #91221A",
"u c #A52015",
"i c #AC2217",
"p c #A6251A",
"a c #AE261B",
"s c #AC281E",
"d c #B12317",
"f c #B22519",
"g c #BC261A",
"h c #B1291E",
"j c #842620",
"k c #832923",
"l c #922D26",
"z c #9C2B23",
"x c #8F332D",
"c c #A72A21",
"v c #AB2D23",
"b c #B12E24",
"n c #AF3026",
"m c #A1342C",
"M c #A83129",
"N c #C4291C",
"B c #CC2B1D",
"V c #D12C1E",
"C c #D72E21",
"Z c #D92E20",
"A c #C73227",
"S c #E03022",
/* pixels */
"                                ",
"                                ",
"                                ",
"        vaaaadddbn              ",
"           lyquudfdpr           ",
"         e7755550wBBw89j        ",
"       e55554111<<6BCN077e      ",
"      k7551<,>,,,,,5iVg657e     ",
"      751<<,,,,>:=*=,gZp555e    ",
"     7788iu1,,=&%%%$$:gg5<57j   ",
"    78wNBg0<>=&%%$@++@u0,,<19 v ",
"  376wVV6<>,=%%%$++++@&*=,,19 ad",
"  25qBVw,,>;&%%$@+++OOOO&,<17rii",
"  e8gN0<,,>*%%%@++OooooX$,,,58if",
"  rgZd,,,,>&%%$@++oooXX.o%,<70if",
"  AZg4,,,,>*%%@+++oooX...+><8idh",
" vVf4,,,,,,&%%@+++oooX..X%>,8aa ",
" agq<,,,,,,&%%@+++ooo...#>,<0dd ",
"Maq5<,,,,,>*%%@@++oooX..$,,1ifh ",
"Ma65<,,,,,:*%%@++++ooooX%,,1ifs ",
"pf05<,,,,,:&%%$++++Ooooo&,,8gd  ",
"pf054<,,,,,&%%@@@++++OO+&<qVBt  ",
"caz25<1654>&%%%@+++++++%,iBiq9  ",
" z  e15iNB4=&%%%@+@+++$,dBu57   ",
" z  k711iVg1=%%%%$$$@@*0iq57r   ",
" z  375<5NZ6,;&&%%%%%**<157j    ",
"     e7416NB6<;**==,,,<555e     ",
"       e75qNVf8<,,,<45577e      ",
"        e750wfBf15547777x     v ",
"         j7757ufiwq88rrmvv      ",
"               bffffadfbb       ",
"                 caaaha         "
};
