/* XPM */
static char *_222cac71f0847bce883827d5d876935BDeVlw0TYVa0eWY2[] = {
/* columns rows colors chars-per-pixel */
"32 32 169 2 ",
"   c None",
".  c #080607",
"X  c #00010D",
"o  c #0F0608",
"O  c #0D0B0B",
"+  c #060606",
"@  c #180001",
"#  c #11120A",
"$  c #010317",
"%  c #131414",
"&  c #161A1B",
"*  c #1D1D1E",
"=  c #16141B",
"-  c #280607",
";  c #270404",
":  c #312F0F",
">  c #070A27",
",  c #121029",
"<  c #070B37",
"1  c #181A37",
"2  c #1F2121",
"3  c #282221",
"4  c #2B2C2B",
"5  c #343433",
"6  c #3C3C3D",
"7  c #35363B",
"8  c #4D0201",
"9  c #501716",
"0  c #5D1111",
"q  c #6B1912",
"w  c #771313",
"e  c #522A0D",
"r  c #49311C",
"t  c #462725",
"y  c #483B30",
"u  c #4D3F3D",
"i  c #5C4720",
"p  c #494436",
"a  c #544335",
"s  c #644724",
"d  c #645335",
"f  c #78662F",
"g  c #0A0E43",
"h  c #1A1D4F",
"j  c #060C5E",
"k  c #090D57",
"l  c #0C125C",
"z  c #0A1154",
"x  c #251E44",
"c  c #31324C",
"v  c #0A0F60",
"b  c #090F6C",
"n  c #0C1264",
"m  c #0C146B",
"M  c #10156D",
"N  c #0B1272",
"B  c #0D137F",
"V  c #0E197B",
"C  c #13187F",
"Z  c #1E3D62",
"A  c #383B77",
"S  c #434343",
"D  c gray31",
"F  c #42434C",
"G  c #4E4E50",
"H  c #554F53",
"J  c #545455",
"K  c #585758",
"L  c #5E5E5E",
"P  c #5B5857",
"I  c #684A4A",
"U  c #634849",
"Y  c #75594F",
"T  c #765352",
"R  c #726A5C",
"E  c #5C5C64",
"W  c #656565",
"Q  c #6B6A6B",
"!  c #756F64",
"~  c #747474",
"^  c #797C7B",
"/  c #8A0808",
"(  c #9B0D0D",
")  c #801A19",
"_  c #AF0504",
"`  c #BA0A0A",
"'  c #B71908",
"]  c #932828",
"[  c #983D30",
"{  c #B13D3E",
"}  c #C70C08",
"|  c #C91A0C",
" . c #C61B1C",
".. c #80522F",
"X. c #905D31",
"o. c #89683A",
"O. c #956639",
"+. c #977039",
"@. c #A36D37",
"#. c #A47038",
"$. c #815B48",
"%. c #8A5B5D",
"&. c #805C5E",
"*. c #836E69",
"=. c #A26668",
"-. c #A08B3E",
";. c #B29936",
":. c #96835F",
">. c #B38346",
",. c #A68B55",
"<. c #C68E48",
"1. c #C4974F",
"2. c #CF9B50",
"3. c #C49950",
"4. c #D7A355",
"5. c #D6A857",
"6. c #DAA958",
"7. c #E3AF5E",
"8. c #EEB55F",
"9. c #C89E6D",
"0. c #E3B760",
"q. c #0C1282",
"w. c #121B8F",
"e. c #121E86",
"r. c #141C94",
"t. c #12189F",
"y. c #111799",
"u. c #16238F",
"i. c #152096",
"p. c #242C9C",
"a. c #151DAB",
"s. c #151BA1",
"d. c #181FBB",
"f. c #161DB1",
"g. c #1622A5",
"h. c #1824A7",
"j. c #1922AC",
"k. c #1B2CB3",
"l. c #1B25BA",
"z. c #1923B7",
"x. c #2026AD",
"c. c #3134A6",
"v. c #262FBB",
"b. c #4E4086",
"n. c #594D84",
"m. c #4247A4",
"M. c #4A42B9",
"N. c #6A63B8",
"B. c #1B25C4",
"V. c #1C25CA",
"C. c #1E28CF",
"Z. c #1F29D4",
"A. c #1F27DF",
"S. c #1F29DA",
"D. c #1D25D7",
"F. c #2A2DC6",
"G. c #202ADB",
"H. c #212AE4",
"J. c #222AE9",
"K. c #2C32E3",
"L. c #232DF3",
"P. c #252DFD",
"I. c #2234F3",
"U. c #838383",
"Y. c #8E8B8D",
"T. c #8D878E",
"R. c #90908F",
"E. c #8A8D90",
"W. c #9181A4",
/* pixels */
"                                                                ",
"                                                                ",
"                            j.V.r.C.G.C.G.z.u.u.                ",
"                          l c.K.y.P.P.H.H.G.G.G.h.              ",
"                  N t.q.  j *.W.x.G.P.V.g.V a.V.F.w.            ",
"                  C V.D.f.r.M.N.v.G.P.P.J.l.B m                 ",
"                    s.P.J.z.B.h.B.G.P.P.P.P.H.r.n               ",
"                    M V.P.Z.    k.L.P.P.P.P.P.J.w.              ",
"                      B.L.k.      I.P.B.a.D.P.P.B.n             ",
"                      d.B.Z       p.D.J.z.B w.j.z.m             ",
"                      m N       >.Y F.P.P.d.b n V m             ",
"                      , I f -.8.5.4.b.a.C.L.r.n   j             ",
"                        @.<.6.0.3.+.= > n i.e.n                 ",
"              K ,           #.#.s r     X < z l                 ",
"            W J p           2.7.$.X.4.>.    $ k                 ",
"          % Q S S & O       3.9.x a :.,.                        ",
"            J   7 p 5 D   ..O.n.c c   a                         ",
"            6 W ~ D Q 6 R o.y E E.  W U.U.~                     ",
"              5 J J L 6 ! d 4       :.n.D Q                     ",
"                                  R.^ S S                       ",
"                            1 F U.L 2                           ",
"                            l g 7 h <                           ",
"                            b v   l g.<                         ",
"                          1 m.A &   N , 5                       ",
"                          u T.H     5 S P 3                     ",
"                        q U T 0 -   4 ^ *.9 @                   ",
"                      / ` { T.] 8 O - )   T i                   ",
"                  w ( `  .=.E.I t . 8 _ } [ ;.:                 ",
"                  U %.%.&.G 4 3 * + q | | ' e #                 ",
"                  & & & &           S t     o                   ",
"                                                                ",
"                                                                "
};
