/* XPM */
static char *_d7078f175894dfe9d7ec5a30b30c68fsCNzY86ypP7MhxKV[] = {
/* columns rows colors chars-per-pixel */
"32 32 186 2 ",
"   c None",
".  c #5C2734",
"X  c #672D37",
"o  c #682D37",
"O  c #6F3239",
"+  c #733539",
"@  c #7A3A3B",
"#  c #813D3E",
"$  c #8C453E",
"%  c #8E493E",
"&  c #934A3F",
"*  c #994F3D",
"=  c #975A34",
"-  c #99503F",
";  c #A7593E",
":  c #A9583A",
">  c #A5563D",
",  c #A76635",
"<  c #AD6433",
"1  c #B46A35",
"2  c #B5623F",
"3  c #C66D3E",
"4  c #D56F3F",
"5  c #CD7E35",
"6  c #DC753E",
"7  c #DC793A",
"8  c #873F40",
"9  c #883F41",
"0  c #894240",
"q  c #954C40",
"w  c #994E41",
"e  c #9C5240",
"r  c #A35540",
"t  c #A95740",
"y  c #AF5E41",
"u  c #A15941",
"i  c #B35D40",
"p  c #BB5F40",
"a  c #AE6240",
"s  c #B46240",
"d  c #BC6640",
"f  c #C66A40",
"g  c #CA6B40",
"h  c #D56E41",
"j  c #D86F41",
"k  c #CB7040",
"l  c #DB7341",
"z  c #D57340",
"x  c #E17B41",
"c  c #DDB01E",
"v  c #EFB40F",
"b  c #E8AB19",
"n  c #F1AE16",
"m  c #EDB014",
"M  c #E2B41D",
"N  c #F8B717",
"B  c #F8BD13",
"V  c #F8BF1A",
"C  c #F4B918",
"Z  c #C98629",
"A  c #CC8B25",
"S  c #D58C29",
"D  c #DF9B2B",
"F  c #D18038",
"G  c #D68135",
"H  c #E38E2A",
"J  c #E89729",
"K  c #EC9C2D",
"L  c #E09327",
"P  c #EB8D3B",
"I  c #E58636",
"U  c #EB9630",
"Y  c #ED9C36",
"T  c #F3933E",
"R  c #F5983B",
"E  c #F89F38",
"W  c #F69D35",
"Q  c #D9A425",
"!  c #EFA921",
"~  c #E4A329",
"^  c #F8AE23",
"/  c #F2A12D",
"(  c #F6A828",
")  c #F6A929",
"_  c #F4B423",
"`  c #F8B224",
"'  c #E6AE35",
"]  c #F2A135",
"[  c #F8A233",
"{  c #F8CF00",
"}  c #F8C30B",
"|  c #F3CD08",
" . c #F8CD0C",
".. c #F5CB02",
"X. c #F8D301",
"o. c #F7DF02",
"O. c #F8DB02",
"+. c #F8D808",
"@. c #F7D207",
"#. c #ECC912",
"$. c #F8C112",
"%. c #F6C816",
"&. c #F7D718",
"*. c #F7E603",
"=. c #F8E403",
"-. c #F8EA01",
";. c #F8E30B",
":. c #F7EA09",
">. c #F8F301",
",. c #F8F800",
"<. c #F8F30C",
"1. c #F7E712",
"2. c #F8E512",
"3. c #F7E817",
"4. c #F8F610",
"5. c #F8F912",
"6. c #ECCB25",
"7. c #F2DA24",
"8. c #F8D920",
"9. c #F8DE2B",
"0. c #F5CF3F",
"q. c #F3C439",
"w. c #F8D83F",
"e. c #F6D736",
"r. c #F8E220",
"t. c #F8F22A",
"y. c #F8EF33",
"u. c #F8EE3B",
"i. c #F8E43B",
"p. c #F8F335",
"a. c #F8F831",
"s. c #E58240",
"d. c #ED8A41",
"f. c #F18F41",
"g. c #F59541",
"h. c #F89840",
"j. c #F4CA49",
"k. c #F7D147",
"l. c #F8DC4D",
"z. c #EDE545",
"x. c #EFE844",
"c. c #F4E740",
"v. c #F4EB44",
"b. c #F8E749",
"n. c #F8E945",
"m. c #F8F847",
"M. c #F8F447",
"N. c #F8E757",
"B. c #F7EF56",
"V. c #F8EE50",
"C. c #F8E258",
"Z. c #F8F354",
"A. c #F8F851",
"S. c #F8F55B",
"D. c #F8F85B",
"F. c #F7ED67",
"G. c #F8F863",
"H. c #F8F56C",
"J. c #F8F96E",
"K. c #F8EE74",
"L. c #F8F473",
"P. c #F8F477",
"I. c #F8DC89",
"U. c #F8DA86",
"Y. c #F8EF85",
"T. c #F8EF89",
"R. c #F8F58D",
"E. c #F8F98F",
"W. c #F8EC9A",
"Q. c #F8F894",
"!. c #F8F59D",
"~. c #F8F89B",
"^. c #F8F9AB",
"/. c #F8F6A8",
"(. c #F8F4B2",
"). c #F8F8B2",
"_. c #F8F9C4",
"`. c #F8F7C9",
"'. c #F8F8CA",
"]. c #F8F9DE",
"[. c #F8F7E2",
"{. c #F8F8E3",
"}. c #F8F8EB",
"|. c #F8F7F1",
" X c #F8F8F4",
".X c #F8F8FB",
/* pixels */
"                        N.l.B.D.D.S.9.*.                        ",
"                  3.K.!.'.[.|.}.}.[.R.D.M.;.X.                  ",
"                H.(.{..X.X}.]._.^.^.~.~.Q.J.y.2.                ",
"            n.Y.[..X|._.~.B.v.z.z.v.v.H.R.~.Q.H.1.O.            ",
"          A.'. X X_.H.7.c A , = = , Z M w.L.Q.~.G.<.O.          ",
"        m._..X{.P.7.Q < % 0 9 9 8 0 0 - 1 Q c.J.~.G.<.X.        ",
"      u./..X|.K.b < & 8 9             e u a S 7.H.Q.a.o.^       ",
"      Y. X{.L.' : 9 9                       s S 8.L.D.>.B       ",
"    p.'.|.J.M : 0                             s D &.5.>.=.(     ",
"  :.L..X_.7.1 0                                 3 / o.,.-.N 7   ",
"  :./.}.H.Q & 8                                   s.` >.>.| 7   ",
"  1._._.7.1 0                                     l / =.,.| 7   ",
"=.4._.(.6.> 9                                     l T $.>.| 7 g ",
"O.4._.R.~ -                                         g.B >.| 7 d ",
"O.<.^.F.F w                                         h.N o.| 7 d ",
"X.<.J.v.5 w                                         /  .O.V 6 2 ",
"_ *.5.1.5 w                                         ^ =.{ / 4 2 ",
"J =.,.:.F w                                         e.Z. .H j 2 ",
"Z ..>.>.D e                                         b.K.B x 3 r ",
"5 v -.,.#.t 8                                      .R.C.n 6 f w ",
"  D { >.;.5 q                                     8.(.k.P h r   ",
"  3 ! -.>.~ i                                     L.T._ 7 3 q   ",
"  s G } >.%.x d                                 M.'.k.H j i 0   ",
"    f K +.*.[ x g                             r./.I.W 6 3 w     ",
"      d U  .$.W d.g                         b.!.U.Y 6 g -       ",
"      w d U } B W g.s.z l             &.V.(._.I.Y 6 g e 9       ",
"        w d I ! ^ W h.g./ %.=.+.e.u.A.P.R.W.j.Y 6 g r 0         ",
"          w i k I R g.R ) %.:.>.t.a.i.0.q.K 7 4 3 e 9           ",
"            # % a g l s.f.P K m m m U 7 7 h g i & #             ",
"                @ 0 r s s s s d 2 2 2 d s t $ @                 ",
"                  . O + @ 0 0 0 0 0 $ @ + + X                   ",
"                        . o o o o o o .                         "
};
