/* XPM */
static char *_653a912c5584b1cf7e10cc2c33249f8xbmtkzkes26kM5Qs[] = {
/* columns rows colors chars-per-pixel */
"32 32 146 2 ",
"   c #91D642",
".  c #86CA3D",
"X  c #5C9E2D",
"o  c #5A9B2C",
"O  c #64A731",
"+  c #93D840",
"@  c #8FBE93",
"#  c #839FD2",
"$  c #629E4A",
"%  c #5A9D2B",
"&  c #60A22F",
"*  c #8DD140",
"=  c #98DD44",
"-  c #96DB44",
";  c #6CAF33",
":  c #67AA32",
">  c #95D943",
",  c #75B937",
"<  c #5A9C2D",
"1  c #5B9D2D",
"2  c #73B736",
"3  c #97DC44",
"4  c #87CB3E",
"5  c #81C53B",
"6  c #8FD341",
"7  c #60A32F",
"8  c #66A831",
"9  c #74B736",
"0  c #94D941",
"q  c #89BE78",
"w  c #779EA1",
"e  c #609D42",
"r  c #5A9D2C",
"t  c #8BD040",
"y  c #6DB034",
"u  c #88CC3E",
"i  c #5C9F2E",
"p  c #81C53C",
"a  c #79BC3A",
"s  c #5B9C2F",
"d  c #8ED240",
"f  c #82C63C",
"g  c #79BC38",
"h  c #6BAE33",
"j  c #66A931",
"k  c #7BBF39",
"l  c #78BC38",
"z  c #96DB43",
"x  c #75B837",
"c  c #76BA37",
"v  c #57992B",
"b  c #478424",
"n  c #4E8C27",
"m  c #90D541",
"M  c #54952A",
"N  c #2D6419",
"B  c #3C7720",
"V  c #2D6519",
"C  c #3D7820",
"Z  c #74B737",
"A  c #61A32F",
"S  c #67A931",
"D  c #8FD441",
"F  c #84C83D",
"G  c #6FB134",
"H  c #458123",
"J  c #4B8926",
"K  c #5C9E2E",
"L  c #88CD3E",
"P  c #71B536",
"I  c #519129",
"U  c #2B6218",
"Y  c #5D9F2E",
"T  c #89CD3E",
"R  c #72B536",
"E  c #529229",
"W  c #2C6319",
"Q  c #6EB134",
"!  c #80C33B",
"~  c #2E651A",
"^  c #30681A",
"/  c #407B21",
"(  c #57982B",
")  c #91D542",
"_  c #599B2C",
"`  c #6FB235",
"'  c #76B937",
"]  c #2E661A",
"[  c #275D16",
"{  c #89CD3F",
"}  c #92D742",
"|  c #70B335",
" . c #95DA43",
".. c #6FB135",
"X. c #4F8E28",
"o. c #2E6519",
"O. c #275D17",
"+. c #83C73C",
"@. c #93D742",
"#. c #5B9C2D",
"$. c #65A831",
"%. c #448123",
"&. c #295F17",
"*. c #285D17",
"=. c #5B9E2D",
"-. c #5FA22F",
";. c #54942A",
":. c #6CAF34",
">. c #99DE45",
",. c #79BD39",
"<. c #8ACE3F",
"1. c #5EA02E",
"2. c #3E7920",
"3. c #285E17",
"4. c #72B636",
"5. c #8DD240",
"6. c #53932A",
"7. c #599A2C",
"8. c #5EA12E",
"9. c #68AB32",
"0. c #39731E",
"q. c #73B636",
"w. c #5DA02E",
"e. c #346C1C",
"r. c #2F671A",
"t. c #539329",
"y. c #8BCF3F",
"u. c #5FA12F",
"i. c #295F18",
"p. c #5A9C2C",
"a. c #30681B",
"s. c #8CD040",
"d. c #55962A",
"f. c #69AB32",
"g. c #7CC03A",
"h. c #80C43B",
"j. c #4A8826",
"k. c #55962B",
"l. c #3E7921",
"z. c #58992C",
"x. c #31691B",
"c. c #53942A",
"v. c #498625",
"b. c #427E22",
"n. c #417D22",
"m. c white",
/* pixels */
"  . X o O + @ # $ % & * = - ; : > , < 1 1 1 < 2 3 = 4 X 5 6 7 1 ",
"  . X 8 9 0 q w e r & * = - ; : > , < 1 1 1 < 2 3 = t y u 6 7 1 ",
"  . i p 3 = a s 1 1 & * = - ; : > , < 1 1 1 < 2 3 3 3 - 3 d 7 1 ",
"  . i f = = g < 1 1 & * = - h j > , < 1 1 1 < 2 3 3 3 3 = d 7 1 ",
"  . i f = = g < 1 1 & * = - k l z x < 1 1 1 < 2 3 3 3 3 = d 7 1 ",
"  . i f = = g < 1 1 & * = 3 3 3 = x < 1 1 1 < 2 3 3 3 3 = d 7 1 ",
"  . 1 f = = g < 1 1 & * = 3 3 3 = x < X X 1 < 2 3 3 3 3 = d 7 1 ",
"  d c t = = g < 1 1 & * = 3 3 3 = , v b n 1 < 2 3 3 3 3 = d 7 1 ",
"m = = 3 3 = g < 1 1 & * = 3 3 3 = , M N B 1 < 2 3 3 3 3 = d 7 1 ",
"m 3 3 3 3 = g < 1 1 & * = 3 3 3 = , M V C 1 < Z = 3 3 3 = 6 A 1 ",
"m 3 3 3 3 = g < 1 1 & * = 3 3 3 = , M V C 1 < S g D 3 3 F G H J ",
"m 3 3 3 3 = g < 1 1 & * = 3 3 3 = , M V C 1 1 < K L = 3 P I U B ",
"m 3 3 3 3 = g < 1 1 & * = 3 3 3 = , M V C X 1 1 Y T = 3 R E W B ",
"m 3 3 3 3 = g < 1 1 Y Q ! 3 3 3 = , M ~ ^ / ( 1 Y T = 3 R E W B ",
") = 3 3 3 = g < 1 1 1 _ ` 3 3 3 = ' M ] [ N M 1 Y { = 3 R E W B ",
"{ } 3 3 3 = g < 1 1 1 < | 3 3  .  ..X.o.O.o.M 1 Y +.@.3 R E W B ",
"#.R - 3 3 = g < 1 1 1 < | 3 = t $.%.W &.*.o.M =.1 -.| z R E W B ",
";.:.- = = >.,.< =.X X < | 3 = <.1.2.[ 3.3.o.M =.1 < h - 4.E W C ",
"M y - m * 5.9 o ;.E 6.7.:.*  .<.8.2.O.3.3.o.M =.1 < 9.t Q E W 0.",
"M y z q.8.-.w.( e.U r.t.Y 7 u y.8.2.O.3.3.o.M =.1 1 X u.Y 6.N i.",
"M y - | p.1 1 ( a.O.W E =.X 4 s.8.2.O.3.3.o.d.X 1 1 1 1 =.6.N *.",
"M f.u h < 1 1 ( a.O.W E X X g.h.1.2.O.3.3.W j.M 1 1 1 1 X 6.N 3.",
"k.X Y X 1 1 1 ( a.O.W E X 1 Y Y X l.O.3.3.3.&.2.1 1 1 1 X 6.N 3.",
"k.1 1 1 1 1 X z.x.O.W E X 1 1 1 =.l.O.3.3.3.O.C 1 1 1 1 X 6.N 3.",
"k.1 1 1 1 1 c.v.~ O.W E X 1 1 1 =.l.O.3.3.3.O.C 1 1 1 1 X 6.N 3.",
"k.1 1 1 1 X b.3.3.3.W E X 1 1 1 =.l.O.3.3.3.O.C 1 1 1 1 X 6.N 3.",
"k.1 1 1 1 X n.O.3.3.W E X 1 1 1 =.l.O.3.3.3.O.C 1 1 1 1 X 6.N 3.",
"k.1 1 1 1 X n.O.3.3.W E X 1 1 1 =.l.O.3.3.3.O.C 1 1 1 1 X 6.N 3.",
"k.1 1 1 1 X n.O.3.3.W E X 1 1 1 =.l.O.3.3.3.O.C 1 1 1 1 X 6.N 3.",
"k.1 1 1 1 X n.O.3.3.W E X 1 1 1 =.l.O.3.3.3.O.C 1 1 1 1 X 6.N 3.",
"k.1 1 1 1 X n.O.3.3.W E X 1 1 1 =.l.O.3.3.3.O.C 1 1 1 1 X 6.N 3.",
"k.1 1 1 1 X n.O.3.3.W E X 1 1 1 =.l.O.3.3.3.O.C 1 1 1 1 X 6.N 3."
};
