/* XPM */
static char *_196bb1d4eb141bf89c1a20cbca154313awtFYhI6QII3ghw[] = {
/* columns rows colors chars-per-pixel */
"32 32 169 2 ",
"   c None",
".  c #080607",
"X  c #00010D",
"o  c #0F0608",
"O  c #0D0B0B",
"+  c #060606",
"@  c #180001",
"#  c #11120A",
"$  c #010317",
"%  c #131414",
"&  c #161A1B",
"*  c #1D1D1E",
"=  c #16141B",
"-  c #280607",
";  c #270404",
":  c #312F0F",
">  c #070A27",
",  c #121029",
"<  c #070B37",
"1  c #181A37",
"2  c #1F2121",
"3  c #282221",
"4  c #2B2C2B",
"5  c #343433",
"6  c #3C3C3D",
"7  c #35363B",
"8  c #4D0201",
"9  c #501716",
"0  c #5D1111",
"q  c #6B1912",
"w  c #771313",
"e  c #522A0D",
"r  c #49311C",
"t  c #462725",
"y  c #483B30",
"u  c #4D3F3D",
"i  c #5C4720",
"p  c #494436",
"a  c #544335",
"s  c #644724",
"d  c #645335",
"f  c #78662F",
"g  c #0A0E43",
"h  c #1A1D4F",
"j  c #060C5E",
"k  c #090D57",
"l  c #0C125C",
"z  c #0A1154",
"x  c #251E44",
"c  c #31324C",
"v  c #0A0F60",
"b  c #090F6C",
"n  c #0C1264",
"m  c #0C146B",
"M  c #10156D",
"N  c #0B1272",
"B  c #0D137F",
"V  c #0E197B",
"C  c #13187F",
"Z  c #1E3D62",
"A  c #383B77",
"S  c #434343",
"D  c gray31",
"F  c #42434C",
"G  c #4E4E50",
"H  c #554F53",
"J  c #545455",
"K  c #585758",
"L  c #5E5E5E",
"P  c #5B5857",
"I  c #684A4A",
"U  c #634849",
"Y  c #75594F",
"T  c #765352",
"R  c #726A5C",
"E  c #5C5C64",
"W  c #656565",
"Q  c #6B6A6B",
"!  c #756F64",
"~  c #747474",
"^  c #797C7B",
"/  c #8A0808",
"(  c #9B0D0D",
")  c #801A19",
"_  c #AF0504",
"`  c #BA0A0A",
"'  c #B71908",
"]  c #932828",
"[  c #983D30",
"{  c #B13D3E",
"}  c #C70C08",
"|  c #C91A0C",
" . c #C61B1C",
".. c #80522F",
"X. c #905D31",
"o. c #89683A",
"O. c #956639",
"+. c #977039",
"@. c #A36D37",
"#. c #A47038",
"$. c #815B48",
"%. c #8A5B5D",
"&. c #805C5E",
"*. c #836E69",
"=. c #A26668",
"-. c #A08B3E",
";. c #B29936",
":. c #96835F",
">. c #B38346",
",. c #A68B55",
"<. c #C68E48",
"1. c #C4974F",
"2. c #CF9B50",
"3. c #C49950",
"4. c #D7A355",
"5. c #D6A857",
"6. c #DAA958",
"7. c #E3AF5E",
"8. c #EEB55F",
"9. c #C89E6D",
"0. c #E3B760",
"q. c #0C1282",
"w. c #121B8F",
"e. c #121E86",
"r. c #141C94",
"t. c #12189F",
"y. c #111799",
"u. c #16238F",
"i. c #152096",
"p. c #242C9C",
"a. c #151DAB",
"s. c #151BA1",
"d. c #181FBB",
"f. c #161DB1",
"g. c #1622A5",
"h. c #1824A7",
"j. c #1922AC",
"k. c #1B2CB3",
"l. c #1B25BA",
"z. c #1923B7",
"x. c #2026AD",
"c. c #3134A6",
"v. c #262FBB",
"b. c #4E4086",
"n. c #594D84",
"m. c #4247A4",
"M. c #4A42B9",
"N. c #6A63B8",
"B. c #1B25C4",
"V. c #1C25CA",
"C. c #1E28CF",
"Z. c #1F29D4",
"A. c #1F27DF",
"S. c #1F29DA",
"D. c #1D25D7",
"F. c #2A2DC6",
"G. c #202ADB",
"H. c #212AE4",
"J. c #222AE9",
"K. c #2C32E3",
"L. c #232DF3",
"P. c #252DFD",
"I. c #2234F3",
"U. c #838383",
"Y. c #8E8B8D",
"T. c #8D878E",
"R. c #90908F",
"E. c #8A8D90",
"W. c #9181A4",
/* pixels */
"                                                                ",
"                                                                ",
"                u.u.l.Z.Z.Z.C.w.F.j.                            ",
"              h.G.H.Z.H.J.P.P.y.K.c.l                           ",
"            w.B.V.j.V g.B.P.H.x.W.*.n   q.t.N                   ",
"                m q.d.J.P.P.A.v.N.M.y.j.D.V.e.                  ",
"              n r.G.P.P.P.P.Z.l.g.B.z.J.L.s.                    ",
"              w.J.P.P.P.P.P.L.k.    S.P.V.m                     ",
"            m B.P.P.Z.a.B.P.I.      k.L.V.                      ",
"            m l.j.w.B z.J.S.p.      Z B.d.                      ",
"            n V m b d.P.P.F.Y >.      N m                       ",
"            j   v r.L.C.a.b.4.5.8.-.f I ,                       ",
"                n e.r.n > = +.3.0.6.<.@.                        ",
"                l z < X     r s #.#.          * K               ",
"                k $     >.4.X.$.7.2.          S J W             ",
"                        ,.:.a x 9.1.      O % S S Q %           ",
"                        p   6 c n.O...  D 5 p 7   J             ",
"                    ~ U.Y.L   R.E y o.R 6 Q G ~ W c             ",
"                    Q S ~ U.      4 d ! 6 L K J 5               ",
"                      S 6 ~ R.                                  ",
"                          , W ^ F 1                             ",
"                          < h 7 g z                             ",
"                        < s.l   j b                             ",
"                      4 , N   = A m.1                           ",
"                    3 P S 5     J E.6                           ",
"                  @ 9 *.^ 4   - 0 T I w                         ",
"                  s T   w - # 8 ] T.{ ` /                       ",
"                : ;.[ } _ 8 . t I E.=. .` ( w                   ",
"                # e ' | | q + 2 2 4 G &.%.%.U                   ",
"                  O     t u           & & * %                   ",
"                                                                ",
"                                                                "
};
