/* XPM */
static char *a6bc0d99441b45f9c938c414a5968f12VCsbhLK87qhVR5CR[] = {
/* columns rows colors chars-per-pixel */
"32 32 239 2 ",
"   c #1B0000",
".  c #100000",
"X  c #0E0000",
"o  c #240201",
"O  c #2B0700",
"+  c #2E0A00",
"@  c #330D01",
"#  c #3E0B00",
"$  c #390B08",
"%  c #3B1301",
"&  c #3B1A01",
"*  c #3A1407",
"=  c #123C10",
"-  c #372401",
";  c #392301",
":  c #392708",
">  c #233A05",
",  c #353903",
"<  c #2F2C2A",
"1  c #420C00",
"2  c #4C0C00",
"3  c #441401",
"4  c #481A03",
"5  c #541D01",
"6  c #5B1900",
"7  c #481917",
"8  c #601F00",
"9  c #4C2405",
"0  c #5A2B02",
"q  c #562701",
"w  c #5A3503",
"e  c #562715",
"r  c #483608",
"t  c #672A02",
"y  c #743100",
"u  c #7E3600",
"i  c #7B3900",
"p  c #74300B",
"a  c #461820",
"s  c #582F3C",
"d  c #563920",
"f  c #6B3637",
"g  c #763E32",
"h  c #673126",
"j  c #175606",
"k  c #134606",
"l  c #294602",
"z  c #354702",
"x  c #3C5700",
"c  c #2B5709",
"v  c #1C7705",
"b  c #176313",
"n  c #266B04",
"m  c #247C01",
"M  c #2A7B03",
"N  c #2F700A",
"B  c #376D36",
"V  c #2F712C",
"C  c #135A32",
"Z  c #5B440E",
"A  c #485702",
"S  c #565B07",
"D  c #414200",
"F  c #725401",
"G  c #6B5713",
"H  c #4C6A02",
"J  c #547701",
"K  c #5B6613",
"L  c #6B6A11",
"P  c #66412E",
"I  c #557130",
"U  c #68772D",
"Y  c #6C712F",
"T  c #535B3C",
"R  c #082C4C",
"E  c #16196C",
"W  c #111373",
"Q  c #291377",
"!  c #1B236C",
"~  c #253367",
"^  c #312A7E",
"/  c #363B76",
"(  c #302770",
")  c #42125B",
"_  c #4D254F",
"`  c #613042",
"'  c #481D6A",
"]  c #461F79",
"[  c #472365",
"{  c #4C2073",
"}  c #572B65",
"|  c #365158",
" . c #2D4E53",
".. c #3C6F51",
"X. c #395361",
"o. c #31726D",
"O. c #127754",
"+. c #594A4A",
"@. c #5B5757",
"#. c #50504A",
"$. c #704B45",
"%. c #4C754C",
"&. c #456256",
"*. c #557154",
"=. c #676A53",
"-. c #4B506B",
";. c #645A7B",
":. c #506867",
">. c #686476",
",. c #667F7A",
"<. c #813800",
"1. c #8E3E00",
"2. c #803700",
"3. c #8F4000",
"4. c #864400",
"5. c #914100",
"6. c #984500",
"7. c #855402",
"8. c #846608",
"9. c #957E16",
"0. c #805559",
"q. c #89797D",
"w. c #805674",
"e. c #2E8E00",
"r. c #268600",
"t. c #358B03",
"y. c #2B9200",
"u. c #369801",
"i. c #399413",
"p. c #3CA200",
"a. c #379B2E",
"s. c #488B1C",
"d. c #47971B",
"f. c #528D1D",
"g. c #45A702",
"h. c #55B408",
"j. c #4CAC1A",
"k. c #54A316",
"l. c #51B51C",
"z. c #55B311",
"x. c #69B918",
"c. c #69B003",
"v. c #599A28",
"b. c #4A882C",
"n. c #7B832D",
"m. c #6A8E2D",
"M. c #55B422",
"N. c #42A029",
"B. c #6DAF2B",
"V. c #6EC613",
"C. c #1D847A",
"Z. c #2F9575",
"A. c #359A7D",
"S. c #3CA272",
"D. c #5C8747",
"F. c #528D4E",
"G. c #64845C",
"H. c #4BAB4D",
"J. c #6AA343",
"K. c #628266",
"L. c #4D986F",
"P. c #76C268",
"I. c #190B88",
"U. c #16009D",
"Y. c #1B009D",
"T. c #190995",
"R. c #1D168B",
"E. c #330D8B",
"W. c #261789",
"Q. c #361584",
"!. c #21029E",
"~. c #290994",
"^. c #290F90",
"/. c #2E308A",
"(. c #1C00A3",
"). c #1A00AA",
"_. c #1704A6",
"`. c #1800B1",
"'. c #2101A1",
"]. c #2205A6",
"[. c #2A1BAD",
"{. c #270FB6",
"}. c #2E23B6",
"|. c #332DB4",
" X c #3736B7",
".X c #421C81",
"XX c #423F83",
"oX c #3C5E89",
"OX c #316F8D",
"+X c #307DBC",
"@X c #4B7C8B",
"#X c #4A7699",
"$X c #6B6C82",
"%X c #4345BC",
"&X c #4A7CAA",
"*X c #677BAC",
"=X c #565B96",
"-X c #3B46C0",
";X c #2D7BC2",
":X c #454CC0",
">X c #4B54C2",
",X c #525EC7",
"<X c #525ED1",
"1X c #5866C7",
"2X c #586AD3",
"3X c #6974CE",
"4X c #817FBC",
"5X c #36979B",
"6X c #388D89",
"7X c #3594A8",
"8X c #2C8BB5",
"9X c #498D90",
"0X c #79888D",
"qX c #659884",
"wX c #67A094",
"eX c #4E88AB",
"rX c #7B8AA6",
"tX c #6E88AB",
"yX c #45A787",
"uX c #1E86CB",
"iX c #3389D4",
"pX c #2D85CF",
"aX c #1B87E9",
"sX c #298AE6",
"dX c #348CE3",
"fX c #3094FA",
"gX c #288BF3",
"hX c #4E8ECC",
"jX c #7992D0",
"kX c #558DE3",
"lX c #7EA4EB",
"zX c #8788A1",
"xX c #80948E",
"cX c #88A4D9",
"vX c #97BDE3",
"bX c #9FC1EF",
"nX c #B8D2E2",
"mX c #B5CFE2",
"MX c #DBECE6",
/* pixels */
"'.U.|.1XY.].!.|.cX>XY.Y.1X XU.]. X].!.U.1X|.U.'.!.'.Y.'.!.!.!.'.",
"Y.%XnXMX%XY.Y.%XcX,XU.%XMXnX>XY.].!.Y.%XMXnX>XY.'.'.Y.Y.'.(.!.(.",
"Y.>XnXcX1XY.!.Y.Y.Y.Y.,XcXnX1XU.!.Y.Y.,XcXmX1XY.'.|.%X XY.'.!.'.",
"Y.[.-X_.}.[.!.].!.Y.{.|.U. X_.Y.!.Y.{.}.U.-X[.Y.'.Y.1X<X_.Y.!.(.",
"'.].(.^.R.'.!.Y.(.~.~ T.Y.[.jX%XY.!...E '.!.!.!.Y.!._./ .. X X'.",
"].`.^.x.E _.Y.'.`.:.j.U.Y.:XvX1X_.XXz.I.'.'.!.!.'.!.(.B.P.2X(.'.",
"!.X.&.d.W.3X XW.D.b.B (.(.Y.).~.v.s.a.oX].!.|.].).&.k.s. .).!.(.",
"^.x.t.k.qXbX<XX.x.t.x./ (.!.'./.x.N V.*.).!.].].`.m.s.g.B.W.(.!.",
"/ b.b z.&.R.).&.V r.b.! Y.!.(.~ B n V ! Q '.'.'.Y.B V M | E !.!.",
"Q B J b W I.).~ I H C W !.'.'.^.b.L j E [ (.'.'.(.| f.A R I.'.!.",
"!.D.8.j E !.'./.%.Z = U.~.(.!.!.:.P > I._ !.].'.).X.@.D R '.(.~.",
"E.@.7.< U.`.E.[ ( _ W E.' ~.).).T.( Q Q h ' E.~.).(.W.) T.~..X' ",
"g e 7.h ^.{ f e s } } g e s { ~.] _ } f p a P ` { E.^.[ ).` e 7 ",
"5 o 0 4 $ 9 3 @ $ w q 4 O 3 5 ) 7 q w 4 3 O 4 * 5 3 Q [ Q 1 0 % ",
"  O % G Z . o + > 9 >   o o o o X % @   o   o O   O z 9 o O n.L ",
"4 y 0 U U + # 0 v H M l N M c Y : d +       # q 4 0 t.H > q =.K ",
"t <.3.Y S +.+.6 , H l p.v r.p.n.Y zX$X*X*X*X+.6 t y 9 J y.0 9.F ",
"t t i 8.F ;.>.2 w x J l l p.r.S =.rXrXjXjXlX>.3 * y t x F.e F K ",
"y >.=.w S ;.$X3 2 w L r n j & w G.zXtXxXY lX>.2 + t 8 q zX$.A r ",
"-.zXq.I :.kXwXf.&.#.L %.o.X.oX=.*.tXeXrXY kXhXoXb.I -.#.4X=X..%.",
"dXkX*X6XyXdXN.u.S.&XU OXfXdXfX9X%.eX+X9XT dXdX5Xp.i.8X@XeXhXyX7X",
";X6XJ.F.7XpXr.m V &XY @XaXpXsXK.*.&X+X9XI iXiXC.r.v 6X#Xa.H.6X5X",
"aXZ.f.6XS.gXOXv 8X@XY oXaXuXpX,.&.&X;X#X#.gXiXiXC C.uX@XC.6X7X5X",
"M.N.%.9X6XA.H.k.M.h.c.k.l.l.l.c.b.F.8X9XL H.M.l.j.p.l.j.j.l.z.H.",
"u.p.g.h.h.g.u.u.e.e.y.e.e.e.e.y.p.g.h.h.g.p.e.e.y.y.e.e.e.e.e.g.",
": l n M M n , - ; ; - - ; - ; ; l n M m n , - ; - - ; ; ; ; - z ",
"1 # % & & # # # 1 1 1 1 1 1 1 1 # % & & # # # 1 # 1 1 1 1 1 # # ",
"t q 5 # 3 5 5 u <.u u <.u u <.y 5 5 1 1 5 5 u <.i i <.<.u <.y 5 ",
"6.5.1.u <.5.5.5.5.5.6.5.6.5.5.5.5.3.u <.5.5.5.5.5.6.5.5.5.5.5.5.",
"1.5.1.5.5.5.5.1.3.1.5.5.3.5.5.1.5.5.5.5.1.5.1.5.3.5.5.1.5.5.5.5.",
"5.5.5.1.5.5.5.1.3.5.5.3.5.3.1.5.5.3.5.5.5.3.5.5.5.5.3.5.5.5.5.1.",
"1.5.5.5.1.1.5.5.5.5.1.5.1.5.5.1.3.5.3.5.3.5.1.1.5.3.5.5.1.5.1.5."
};
