/* XPM */
static char *fb36e96d64a04b11f341004a5ad049e7oUozOaLDk6dd3IXK[] = {
/* columns rows colors chars-per-pixel */
"32 32 85 1 ",
"  c #0A0501",
". c #0E0603",
"X c #100B07",
"o c #120A07",
"O c #130B08",
"+ c #110C08",
"@ c #120D09",
"# c #130E0A",
"$ c #140C09",
"% c #150D0A",
"& c #140F0B",
"* c #160E0B",
"= c #170F0C",
"- c #15100C",
"; c #16110D",
": c #17120E",
"> c #18100D",
", c #19110E",
"< c #18130F",
"1 c #1A120F",
"2 c #1B1310",
"3 c #191410",
"4 c #1A1511",
"5 c #1B1612",
"6 c #1C1411",
"7 c #1D1512",
"8 c #1C1713",
"9 c #1E1613",
"0 c #1F1714",
"q c #1D1814",
"w c #1E1915",
"e c #1F1A16",
"r c #201815",
"t c #211916",
"y c #201B17",
"u c #221A17",
"i c #231B18",
"p c #211C18",
"a c #221D19",
"s c #231E1A",
"d c #241C19",
"f c #251D1A",
"g c #241F1B",
"h c #261E1B",
"j c #271F1C",
"k c #25201C",
"l c #26211D",
"z c #27221E",
"x c #28201D",
"c c #29211E",
"v c #28231F",
"b c #2A221F",
"n c #2B2320",
"m c #292420",
"M c #2A2521",
"N c #2B2622",
"B c #2C2421",
"V c #2D2522",
"C c #2C2723",
"Z c #2E2623",
"A c #2F2724",
"S c #2D2824",
"D c #2E2925",
"F c #2F2A26",
"G c #302825",
"H c #312926",
"J c #302B27",
"K c #322A27",
"L c #332B28",
"P c #312C28",
"I c #322D29",
"U c #332E2A",
"Y c #342C29",
"T c #352D2A",
"R c #342F2B",
"E c #362E2B",
"W c #372F2C",
"Q c #35302C",
"! c #36312D",
"~ c #37322E",
"^ c #38302D",
"/ c #39312E",
"( c #38332F",
") c #3A322F",
"_ c #3A3531",
/* pixels */
"rid2bLH>ATB0>>=7@mp;3eklCmeFFPl8",
"drjjBrdbnHBr2>*>;7<@3pelmFvlpCmp",
"77HWW7>7rbbrr07re<3;emempFPllFm;",
"HHTbBbbrnHBbb7*>e@p3pmemllFpFPl@",
"BHH7idd>jnBHHd77;;me3mpvFpmemmk3",
"dbTjd>>**7dBLBdAvm_mevppk8Cmmp3l",
"WTWbr=dB0rdHTndA~PQPllvle;mFvm;l",
"BBHr0>rrrrdT^HBTFp8vlkFml3pkeP3l",
"dBB>707HBHdT^BHBppelllPplepmvpe;",
"dHn>rTbrBbjdHWHBl<3eelle@eFFpkke",
"*rHBdidHndHrrHdjm@<;;p3peppe<pmF",
"r=rBABridbTb>70dCee88e3le;eCl38p",
"BdddB^b*rdjb7*bAmFlmvepl-3C(l;;e",
"2dLndjjHbr*r>*BbpPmFm3pp;pFFlplp",
">7jdnnj^B777>7b0;mmlle3e;eFP~_Pe",
"*nB7dTBHn0Hb7njr;pFelm3eepFPFF~~",
"2i7rbnj77bj>rTH>pp_eekppe;pPmlle",
">db7nibjd7>>rdddmlF3pFkpeeekee; ",
"bnbOHjj7d0>>7djdlCFeeFpClll8;eke",
"TLnOBb7=r070idd7kPveeFeFmJPl;<el",
"HTB7rd>7b>>bb>=0pm3;eJpvepllp83p",
"Bdd77b7ib00dbd073p;-8lplp8;eCmlF",
"B*02ib07rjd7dHA73ep388llFmeemmpk",
"B.n0r=27777rBHBdlepekeme-klkml33",
"rbbr7dd2b=rdrndrmee3eev33lmplpem",
"*7bd>>r7bdBBbBddvee<3em83lpekeel",
"rdnndbbrrdBbBHbbp8p3e3eXll3-<3pF",
"bddbbbnd>ddrBAddl8e3e33;;3eplpe8",
"ddbd0inBrjr0bnirm<XXe;pF33evmlpe",
"bnBbdHTBbb7dBBndp@@@p;3lFe8eplmF",
"dbnbbTB>dr7nHbHB;3e3l<-<k3evllmm",
"rA^HbHb*j0>BBdFd;pv3peekk<8lpkml"
};
